<svg xmlns="http://www.w3.org/2000/svg" xmlns:xlink="http://www.w3.org/1999/xlink" viewBox="0 0 512 512" width="512" height="512" role="img" aria-label="SuCSS"><title>SuCSS</title><defs><linearGradient id="word-gradient" x1="0" y1="0" x2="0.35" y2="1"><stop offset="0" stop-color="#9179FF"/><stop offset="1" stop-color="#7C5CFF"/></linearGradient><linearGradient id="plate-gradient" x1="0.85" y1="0" x2="0.15" y2="1"><stop offset="0" stop-color="#9179FF"/><stop offset="0.45" stop-color="#7C5CFF"/><stop offset="1" stop-color="#6242E0"/></linearGradient><filter id="plate-shadow" x="-70%" y="-200%" width="240%" height="500%" color-interpolation-filters="sRGB"><feGaussianBlur stdDeviation="9.96"/></filter></defs><rect width="512" height="512" rx="107.52" fill="#FFFFFF"/><g transform="translate(165.6 135.63) scale(0.96)"><ellipse cx="93.78" cy="179.33" rx="140.86" ry="24.27" fill="#7C5CFF" opacity="0.3" filter="url(#plate-shadow)"/><path d="M-49.24 66.51A176.07 62.22 0 1 0 236.8 66.51A157.79 51.37 0 1 1 -49.24 66.51Z" fill="url(#plate-gradient)" fill-rule="evenodd"/><path d="M42.86 100L42.86 100Q30.54 100 18.84 97.14Q7.14 94.29 0 90L0 90L10.18 66.79Q16.96 70.89 26.07 73.3Q35.18 75.71 43.93 75.71L43.93 75.71Q52.5 75.71 55.8 73.93Q59.11 72.14 59.11 69.11L59.11 69.11Q59.11 66.25 55.98 64.91Q52.86 63.57 47.77 62.86Q42.68 62.14 36.61 61.25Q30.54 60.36 24.38 58.84Q18.21 57.32 13.13 54.2Q8.04 51.07 5 45.71Q1.96 40.36 1.96 32.14L1.96 32.14Q1.96 22.86 7.41 15.63Q12.86 8.39 23.39 4.2Q33.93 0 49.11 0L49.11 0Q59.29 0 69.73 2.05Q80.18 4.11 87.32 8.21L87.32 8.21L77.14 31.25Q70 27.14 62.86 25.63Q55.71 24.11 49.29 24.11L49.29 24.11Q40.71 24.11 37.23 26.07Q33.75 28.04 33.75 30.89L33.75 30.89Q33.75 33.75 36.79 35.27Q39.82 36.79 44.91 37.59Q50 38.39 56.07 39.2Q62.14 40 68.3 41.61Q74.46 43.21 79.55 46.34Q84.64 49.46 87.68 54.73Q90.71 60 90.71 68.21L90.71 68.21Q90.71 77.14 85.27 84.29Q79.82 91.43 69.2 95.71Q58.57 100 42.86 100M130.3 100L130.3 100Q118.52 100 109.14 95.36Q99.77 90.71 94.5 80.8Q89.23 70.89 89.23 55.71L89.23 55.71L89.23 1.61L123.16 1.61L123.16 50.18Q123.16 61.43 127.36 66.25Q131.55 71.07 139.23 71.07L139.23 71.07Q144.23 71.07 148.34 68.75Q152.45 66.43 154.95 61.34Q157.45 56.25 157.45 48.21L157.45 48.21L157.45 1.61L191.38 1.61L191.38 98.39L159.05 98.39L159.05 71.07L165.3 78.75Q160.3 89.46 150.84 94.73Q141.38 100 130.3 100" fill="url(#word-gradient)"/></g></svg>
